<svg width="32" height="27" viewBox="0 0 32 27" fill="none" xmlns="http://www.w3.org/2000/svg">
<path d="M26.0328 4.23824L16.9893 0.064331C16.8977 0.0219512 16.798 0 16.6971 0C16.5962 0 16.4965 0.0219512 16.405 0.064331L7.36149 4.23824C7.24074 4.29413 7.13854 4.38347 7.06703 4.49567C6.99552 4.60787 6.95768 4.73823 6.95801 4.87129V16.6974C6.95768 16.8304 6.99552 16.9608 7.06703 17.073C7.13854 17.1852 7.24074 17.2745 7.36149 17.3304L16.405 21.5043C16.4965 21.5467 16.5962 21.5687 16.6971 21.5687C16.798 21.5687 16.8977 21.5467 16.9893 21.5043L26.0328 17.3304C26.1535 17.2745 26.2557 17.1852 26.3272 17.073C26.3988 16.9608 26.4366 16.8304 26.4363 16.6974V4.87129C26.4366 4.73823 26.3988 4.60787 26.3272 4.49567C26.2557 4.38347 26.1535 4.29413 26.0328 4.23824ZM16.6971 8.27998L9.31627 4.87129L16.6971 1.46259L24.078 4.87129L16.6971 8.27998ZM25.045 16.2522L17.3928 19.7861V9.49042L25.045 5.9565V16.2522Z" fill="#E04E1E"/>
<path d="M16.6971 8.27998L9.31627 4.87129L16.6971 1.46259L24.078 4.87129L16.6971 8.27998Z" fill="#E04E1E"/>
<path d="M29.2174 16.6953L31.8354 23.7937C32.4237 25.2463 31.3841 26.4344 29.5245 26.4344H2.47639C0.616829 26.4344 -0.422832 25.2463 0.163774 23.7937L3.47826 16.6953H5.56522L3.60396 23.6518H28.3969L27.1304 16.6953H29.2174Z" fill="#E04E1E"/>
</svg>
