<svg width="150" height="29" viewBox="0 0 150 29" fill="none" xmlns="http://www.w3.org/2000/svg">
<path d="M28.3104 4.60935L18.4751 0.069964C18.3755 0.0238733 18.2671 0 18.1573 0C18.0476 0 17.9392 0.0238733 17.8396 0.069964L8.00424 4.60935C7.87291 4.67013 7.76177 4.76729 7.684 4.88932C7.60622 5.01135 7.56507 5.15312 7.56543 5.29783V18.1594C7.56507 18.3041 7.60622 18.4459 7.684 18.5679C7.76177 18.69 7.87291 18.7871 8.00424 18.8479L17.8396 23.3873C17.9392 23.4334 18.0476 23.4573 18.1573 23.4573C18.2671 23.4573 18.3755 23.4334 18.4751 23.3873L28.3104 18.8479C28.4418 18.7871 28.5529 18.69 28.6307 18.5679C28.7085 18.4459 28.7496 18.3041 28.7492 18.1594V5.29783C28.7496 5.15312 28.7085 5.01135 28.6307 4.88932C28.5529 4.76729 28.4418 4.67013 28.3104 4.60935ZM18.1573 9.00499L10.1302 5.29783L18.1573 1.59066L26.1845 5.29783L18.1573 9.00499ZM27.2361 17.6752L18.9139 21.5186V10.3214L27.2361 6.47807V17.6752Z" fill="#211D1D"/>
<path d="M18.1573 9.00499L10.1302 5.29783L18.1573 1.59066L26.1845 5.29783L18.1573 9.00499Z" fill="#211D1D"/>
<path d="M31.7757 18.1572L34.623 25.8772C35.2628 27.4569 34.1321 28.7491 32.1097 28.7491H2.69323C0.67084 28.7491 -0.459856 27.4569 0.178115 25.8772L3.78282 18.1572H6.05252L3.91953 25.7229H30.8834L29.506 18.1572H31.7757Z" fill="#211D1D"/>
<path d="M46.9543 24.2917C44.8239 24.2917 43.4923 23.2265 42.5965 22.0402V24.0254H39.6429V6.35204H42.5965V13.373C43.5407 12.0414 44.8481 10.9762 46.9543 10.9762C49.9564 10.9762 52.8858 13.3487 52.8858 17.6097V17.6581C52.8858 21.9191 49.9806 24.2917 46.9543 24.2917ZM46.2523 21.7496C48.2617 21.7496 49.908 20.176 49.908 17.6581V17.6097C49.908 15.1403 48.2133 13.5182 46.2523 13.5182C44.2428 13.5182 42.5239 15.1645 42.5239 17.6097V17.6581C42.5239 20.1034 44.2428 21.7496 46.2523 21.7496ZM54.5417 24.0254V6.35204H57.4954V24.0254H54.5417ZM65.8874 24.3159C61.9896 24.3159 59.1086 21.3381 59.1086 17.7066V17.6581C59.1086 14.0024 62.0138 10.9762 65.9358 10.9762C69.882 10.9762 72.7388 13.954 72.7388 17.6097V17.6581C72.7388 21.2654 69.8336 24.3159 65.8874 24.3159ZM65.9358 21.7496C68.3326 21.7496 69.8094 19.9097 69.8094 17.7066V17.6581C69.8094 15.4066 68.1873 13.5424 65.8874 13.5424C63.539 13.5424 62.038 15.3824 62.038 17.6097V17.6581C62.038 19.8855 63.6843 21.7496 65.9358 21.7496ZM80.1163 24.3159C76.3153 24.3159 73.5069 21.3381 73.5069 17.7066V17.6581C73.5069 14.0266 76.3153 10.9762 80.1647 10.9762C82.5615 10.9762 84.0383 11.8719 85.273 13.1793L83.4331 15.1403C82.5373 14.1961 81.5931 13.5424 80.1405 13.5424C78.01 13.5424 76.4364 15.3824 76.4364 17.6097V17.6581C76.4364 19.9339 78.01 21.7496 80.2615 21.7496C81.6415 21.7496 82.6341 21.1202 83.5783 20.176L85.3457 21.9191C84.0867 23.3475 82.6099 24.3159 80.1163 24.3159ZM92.7973 24.2675C90.1826 24.2675 87.7616 23.3959 85.7279 21.556L87.5195 19.4255C89.1657 20.8539 90.7636 21.6286 92.8699 21.6286C94.7099 21.6286 95.8719 20.757 95.8719 19.4981V19.4497C95.8719 18.2634 95.1941 17.5613 92.0467 16.8592C88.4394 16.0119 86.4058 14.8982 86.4058 11.7993V11.7509C86.4058 8.84567 88.8268 6.83624 92.192 6.83624C94.6856 6.83624 96.5982 7.58675 98.3414 8.96672L96.7435 11.2183C95.1941 10.0804 93.693 9.47514 92.1436 9.47514C90.4005 9.47514 89.3836 10.3467 89.3836 11.4846V11.533C89.3836 12.8403 90.1584 13.4214 93.4267 14.1961C96.9856 15.1161 98.8498 16.3266 98.8498 19.1592V19.2076C98.8498 22.4033 96.3561 24.2675 92.7973 24.2675ZM104.667 24.2433C102.512 24.2433 100.987 23.2991 100.987 20.4907V13.7603H99.3646V11.2425H100.987V7.73201H103.916V11.2425H107.354V13.7603H103.916V20.0307C103.916 21.1686 104.497 21.6286 105.49 21.6286C106.119 21.6286 106.724 21.4833 107.306 21.1928V23.5896C106.555 24.0012 105.804 24.2433 104.667 24.2433ZM112.502 24.2917C110.105 24.2917 107.95 22.9359 107.95 20.3455V20.297C107.95 17.5129 110.129 16.1813 113.252 16.1813C114.705 16.1813 115.698 16.3992 116.69 16.7139V16.3992C116.69 14.5593 115.576 13.6151 113.519 13.6151C112.066 13.6151 111.025 13.9298 109.863 14.414L109.064 12.114C110.492 11.5088 111.872 11.073 113.906 11.073C115.819 11.073 117.223 11.5572 118.143 12.5014C119.087 13.4456 119.523 14.7771 119.523 16.4476V24.0254H116.666V22.4275C115.794 23.4686 114.463 24.2917 112.502 24.2917ZM113.325 22.1612C115.262 22.1612 116.739 21.0718 116.739 19.4255V18.5539C115.988 18.2634 114.995 18.0455 113.833 18.0455C111.921 18.0455 110.831 18.8202 110.831 20.176V20.2244C110.831 21.4591 111.897 22.1612 113.325 22.1612ZM127.207 27.9474C125.077 27.9474 123.164 27.439 121.494 26.4222L122.583 24.2191C123.963 25.0664 125.392 25.5506 127.135 25.5506C129.749 25.5506 131.178 24.2433 131.178 21.6528V20.6844C130.113 22.0402 128.781 23.0086 126.675 23.0086C123.648 23.0086 120.864 20.7812 120.864 17.0287V16.9803C120.864 13.2035 123.673 10.9762 126.675 10.9762C128.829 10.9762 130.161 11.9688 131.154 13.1551V11.2425H134.083V21.4107C134.083 23.5412 133.55 25.1391 132.461 26.2285C131.299 27.3906 129.532 27.9474 127.207 27.9474ZM127.449 20.5149C129.483 20.5149 131.202 19.0865 131.202 17.0045V16.956C131.202 14.8982 129.483 13.4698 127.449 13.4698C125.416 13.4698 123.818 14.8498 123.818 16.956V17.0045C123.818 19.0865 125.44 20.5149 127.449 20.5149ZM142.106 24.3159C138.426 24.3159 135.545 21.6286 135.545 17.6824V17.6339C135.545 13.954 138.136 10.9762 141.791 10.9762C145.859 10.9762 147.917 14.1719 147.917 17.8518C147.917 18.1181 147.892 18.3844 147.868 18.675H138.475C138.789 20.7812 140.242 21.9191 142.155 21.9191C143.607 21.9191 144.576 21.3865 145.617 20.3939L147.336 21.9191C146.101 23.3717 144.455 24.3159 142.106 24.3159ZM138.45 16.7382H145.011C144.818 14.874 143.704 13.373 141.767 13.373C139.951 13.373 138.717 14.7287 138.45 16.7382Z" fill="#211D1D"/>
</svg>
