<svg width="150" height="29" viewBox="0 0 150 29" fill="none" xmlns="http://www.w3.org/2000/svg">
<path d="M28.3104 4.60935L18.4751 0.069964C18.3755 0.0238733 18.2671 0 18.1573 0C18.0476 0 17.9392 0.0238733 17.8396 0.069964L8.00424 4.60935C7.87291 4.67013 7.76177 4.76729 7.684 4.88932C7.60622 5.01135 7.56507 5.15312 7.56543 5.29783V18.1594C7.56507 18.3041 7.60622 18.4459 7.684 18.5679C7.76177 18.69 7.87291 18.7871 8.00424 18.8479L17.8396 23.3873C17.9392 23.4334 18.0476 23.4573 18.1573 23.4573C18.2671 23.4573 18.3755 23.4334 18.4751 23.3873L28.3104 18.8479C28.4418 18.7871 28.5529 18.69 28.6307 18.5679C28.7085 18.4459 28.7496 18.3041 28.7492 18.1594V5.29783C28.7496 5.15312 28.7085 5.01135 28.6307 4.88932C28.5529 4.76729 28.4418 4.67013 28.3104 4.60935ZM18.1573 9.00499L10.1302 5.29783L18.1573 1.59066L26.1845 5.29783L18.1573 9.00499ZM27.2361 17.6752L18.9139 21.5186V10.3214L27.2361 6.47807V17.6752Z" fill="white"/>
<path d="M18.1573 9.00499L10.1302 5.29783L18.1573 1.59066L26.1845 5.29783L18.1573 9.00499Z" fill="white"/>
<path d="M31.7757 18.1572L34.623 25.8772C35.2628 27.4569 34.1321 28.7491 32.1097 28.7491H2.69323C0.67084 28.7491 -0.459856 27.4569 0.178115 25.8772L3.78282 18.1572H6.05252L3.91953 25.7229H30.8834L29.506 18.1572H31.7757Z" fill="white"/>
<path d="M46.9553 24.2917C44.8248 24.2917 43.4933 23.2265 42.5975 22.0402V24.0254H39.6439V6.35204H42.5975V13.373C43.5417 12.0414 44.849 10.9762 46.9553 10.9762C49.9574 10.9762 52.8868 13.3487 52.8868 17.6097V17.6581C52.8868 21.9191 49.9816 24.2917 46.9553 24.2917ZM46.2532 21.7496C48.2627 21.7496 49.909 20.176 49.909 17.6581V17.6097C49.909 15.1403 48.2142 13.5182 46.2532 13.5182C44.2438 13.5182 42.5249 15.1645 42.5249 17.6097V17.6581C42.5249 20.1034 44.2438 21.7496 46.2532 21.7496ZM54.5427 24.0254V6.35204H57.4964V24.0254H54.5427ZM65.8884 24.3159C61.9905 24.3159 59.1095 21.3381 59.1095 17.7066V17.6581C59.1095 14.0024 62.0147 10.9762 65.9368 10.9762C69.883 10.9762 72.7398 13.954 72.7398 17.6097V17.6581C72.7398 21.2654 69.8346 24.3159 65.8884 24.3159ZM65.9368 21.7496C68.3336 21.7496 69.8104 19.9097 69.8104 17.7066V17.6581C69.8104 15.4066 68.1883 13.5424 65.8884 13.5424C63.54 13.5424 62.039 15.3824 62.039 17.6097V17.6581C62.039 19.8855 63.6852 21.7496 65.9368 21.7496ZM80.1173 24.3159C76.3163 24.3159 73.5079 21.3381 73.5079 17.7066V17.6581C73.5079 14.0266 76.3163 10.9762 80.1657 10.9762C82.5625 10.9762 84.0393 11.8719 85.274 13.1793L83.434 15.1403C82.5383 14.1961 81.5941 13.5424 80.1415 13.5424C78.011 13.5424 76.4373 15.3824 76.4373 17.6097V17.6581C76.4373 19.9339 78.011 21.7496 80.2625 21.7496C81.6425 21.7496 82.6351 21.1202 83.5793 20.176L85.3466 21.9191C84.0877 23.3475 82.6109 24.3159 80.1173 24.3159ZM92.7982 24.2675C90.1835 24.2675 87.7625 23.3959 85.7289 21.556L87.5204 19.4255C89.1667 20.8539 90.7646 21.6286 92.8709 21.6286C94.7108 21.6286 95.8729 20.757 95.8729 19.4981V19.4497C95.8729 18.2634 95.195 17.5613 92.0477 16.8592C88.4404 16.0119 86.4068 14.8982 86.4068 11.7993V11.7509C86.4068 8.84567 88.8278 6.83624 92.193 6.83624C94.6866 6.83624 96.5992 7.58675 98.3423 8.96672L96.7445 11.2183C95.195 10.0804 93.694 9.47514 92.1446 9.47514C90.4014 9.47514 89.3846 10.3467 89.3846 11.4846V11.533C89.3846 12.8403 90.1593 13.4214 93.4277 14.1961C96.9866 15.1161 98.8508 16.3266 98.8508 19.1592V19.2076C98.8508 22.4033 96.3571 24.2675 92.7982 24.2675ZM104.668 24.2433C102.513 24.2433 100.988 23.2991 100.988 20.4907V13.7603H99.3656V11.2425H100.988V7.73201H103.917V11.2425H107.355V13.7603H103.917V20.0307C103.917 21.1686 104.498 21.6286 105.491 21.6286C106.12 21.6286 106.725 21.4833 107.306 21.1928V23.5896C106.556 24.0012 105.805 24.2433 104.668 24.2433ZM112.503 24.2917C110.106 24.2917 107.951 22.9359 107.951 20.3455V20.297C107.951 17.5129 110.13 16.1813 113.253 16.1813C114.706 16.1813 115.699 16.3992 116.691 16.7139V16.3992C116.691 14.5593 115.577 13.6151 113.52 13.6151C112.067 13.6151 111.026 13.9298 109.864 14.414L109.065 12.114C110.493 11.5088 111.873 11.073 113.907 11.073C115.82 11.073 117.224 11.5572 118.144 12.5014C119.088 13.4456 119.524 14.7771 119.524 16.4476V24.0254H116.667V22.4275C115.795 23.4686 114.464 24.2917 112.503 24.2917ZM113.326 22.1612C115.263 22.1612 116.74 21.0718 116.74 19.4255V18.5539C115.989 18.2634 114.996 18.0455 113.834 18.0455C111.922 18.0455 110.832 18.8202 110.832 20.176V20.2244C110.832 21.4591 111.898 22.1612 113.326 22.1612ZM127.208 27.9474C125.078 27.9474 123.165 27.439 121.495 26.4222L122.584 24.2191C123.964 25.0664 125.393 25.5506 127.136 25.5506C129.75 25.5506 131.179 24.2433 131.179 21.6528V20.6844C130.114 22.0402 128.782 23.0086 126.676 23.0086C123.649 23.0086 120.865 20.7812 120.865 17.0287V16.9803C120.865 13.2035 123.674 10.9762 126.676 10.9762C128.83 10.9762 130.162 11.9688 131.155 13.1551V11.2425H134.084V21.4107C134.084 23.5412 133.551 25.1391 132.462 26.2285C131.3 27.3906 129.532 27.9474 127.208 27.9474ZM127.45 20.5149C129.484 20.5149 131.203 19.0865 131.203 17.0045V16.956C131.203 14.8982 129.484 13.4698 127.45 13.4698C125.417 13.4698 123.819 14.8498 123.819 16.956V17.0045C123.819 19.0865 125.441 20.5149 127.45 20.5149ZM142.107 24.3159C138.427 24.3159 135.546 21.6286 135.546 17.6824V17.6339C135.546 13.954 138.137 10.9762 141.792 10.9762C145.86 10.9762 147.918 14.1719 147.918 17.8518C147.918 18.1181 147.893 18.3844 147.869 18.675H138.476C138.79 20.7812 140.243 21.9191 142.156 21.9191C143.608 21.9191 144.577 21.3865 145.618 20.3939L147.337 21.9191C146.102 23.3717 144.456 24.3159 142.107 24.3159ZM138.451 16.7382H145.012C144.819 14.874 143.705 13.373 141.768 13.373C139.952 13.373 138.718 14.7287 138.451 16.7382Z" fill="white"/>
</svg>
